<svg version="1.1" viewBox="0 0 24 24" xmlns="http://www.w3.org/2000/svg">
	<path d="m9.1119 3.9476c.98017-.14121 2.0185.93033 2.3175 2.4089.29904 1.4703-.24089 2.7827-1.2211 2.9322-.97186.14952-2.0185-.92202-2.3258-2.4006-.30734-1.4703.2492-2.7827 1.2294-2.9405m5.9392 0c.98848.15782 1.5367 1.4703 1.246 2.9405-.31565 1.4786-1.354 2.5501-2.3341 2.4006-.98848-.14952-1.5284-1.4619-1.2211-2.9322.29903-1.4786 1.3374-2.5501 2.3092-2.4089m-10.383 3.821c.94694-.40702 2.2345.33226 2.9073 1.6198.6313 1.3124.41533 2.6913-.52331 3.0983-.93864.40702-2.2178-.32396-2.8741-1.6281-.65622-1.3041-.42363-2.6913.49008-3.09m14.952 0c.91372.39871 1.1463 1.7859.49008 3.09s-1.9354 2.0351-2.8741 1.6281c-.93864-.40702-1.1546-1.7859-.52331-3.0983.67283-1.2875 1.9603-2.0268 2.9073-1.6198m-1.3872 8.9544c.03323.78081-.56484 1.6447-1.2792 1.9686-1.4869.68113-3.2479-.73097-4.9008-.73097s-3.4306 1.4703-4.8925.73097c-.83065-.40702-1.4038-1.4869-1.2958-2.384.14952-1.2377 1.6364-1.9022 2.5169-2.8076 1.1712-1.1712 2.0019-3.3724 3.6715-3.3724 1.6613 0 2.5418 2.168 3.6632 3.3724.92202 1.0134 2.4587 1.869 2.5169 3.2229z" fill="currentColor"/>
	<path d="m6.0547 2.8145-1.916 1.9023 15.33 15.439 1.916-1.9023z" />
	<path d="m11.99.85938c-6.2477 0-11.326 5.0804-11.326 11.328 0 6.2477 5.0785 11.326 11.326 11.326 6.2477 0 11.328-5.0785 11.328-11.326 0-6.2477-5.0804-11.328-11.328-11.328zm0 1.3613c5.5127 0 9.9668 4.4541 9.9668 9.9668 0 5.5127-4.4541 9.9668-9.9668 9.9668-5.5127 0-9.9668-4.4541-9.9668-9.9668 0-5.5127 4.4541-9.9668 9.9668-9.9668z" />
</svg>
