<svg xmlns="http://www.w3.org/2000/svg" xmlns:xlink="http://www.w3.org/1999/xlink" version="1.1" viewBox="0 0 100 100">
	<path  d="M-522.834,247.258v-15.501h18.333V118.071h-0.054c0.024-0.354,0.054-0.706,0.054-1.063  c0-17.221-28.351-31.179-63.324-31.179c-34.973,0-63.324,13.958-63.324,31.179c0,0.356,0.031,0.709,0.056,1.063h-0.056v23.713h4.883  v15.501h-4.883v68.911h4.883v15.502h-4.883v68.91h4.883v15.502h-4.883v35.719h126.648V247.258H-522.834z"></path><path display="none" d="M-488.378,90.718c-5.76-18.232-39.131-32.221-79.447-32.221s-73.689,13.988-79.448,32.221  c-2.198,0.789-3.83,3.669-3.83,7.111c0,2.962,1.208,5.508,2.944,6.665v257.335h14.009V115.128h0.058  c-0.025-0.358-0.058-0.715-0.058-1.076c0-17.428,29.694-31.555,66.324-31.555s66.324,14.127,66.324,31.555  c0,0.361-0.031,0.718-0.057,1.076h0.057v118.869h-17.933v10.5h17.933v117.332h14.01V104.494c1.735-1.157,2.944-3.702,2.944-6.665  C-484.548,94.387-486.181,91.506-488.378,90.718z"></path><rect x="-610.326" y="113.039" display="none" fill="#000000" width="85" height="34.458"></rect><rect x="-610.326" y="158.268" display="none" fill="#000000" width="85" height="8.614"></rect><path d="M68.502,22.613c0-5.032-8.283-9.109-18.503-9.109c-10.217,0-18.501,4.077-18.501,9.109c0,0.104,0.009,0.206,0.016,0.31  h-0.016v6.929h1.427v4.528h-1.427v20.135h1.427v4.529h-1.427v20.135h1.427v4.53h-1.427v10.435h37.004V60.669h-5.357V56.14h5.357  V22.923h-0.016C68.492,22.819,68.502,22.718,68.502,22.613z M62.417,36.583H37.582v-1.718h24.835V36.583z M62.417,31.521H37.582  V21.453h24.835V31.521z"></path><path d="M73.212,14.932C71.53,9.604,61.78,5.517,50,5.517c-11.779,0-21.53,4.087-23.213,9.415c-0.643,0.23-1.119,1.072-1.119,2.078  c0,0.865,0.354,1.608,0.86,1.947v75.187h4.093v-72.08h0.017c-0.007-0.104-0.017-0.209-0.017-0.313c0-5.094,8.676-9.222,19.378-9.222  c10.703,0,19.379,4.128,19.379,9.222c0,0.104-0.009,0.209-0.017,0.313h0.017v34.731h-5.24v3.067h5.24v34.281h4.093V18.957  c0.509-0.339,0.86-1.082,0.86-1.947C74.331,16.004,73.854,15.162,73.212,14.932z M66.598,58.94c-0.358,0-0.65-0.292-0.65-0.65  c0-0.361,0.292-0.652,0.65-0.652c0.36,0,0.652,0.291,0.652,0.652C67.25,58.648,66.958,58.94,66.598,58.94z"></path>
</svg>
