<svg version="1" viewBox="0 0 9.0908 10.036" xmlns="http://www.w3.org/2000/svg">
	<path d="m4.4789.0051529a.5.5 0 00-.438.53v.657l-.281-.125a.50316.50316 0 10-.438.906l.719.344v1.813l-1.656-1.033.062-.875a.50216.50216 0 10-1-.093l-.03.406-.595-.375a.5.5 0 10-.531.844l.656.406-.312.25a.50304.50304 0 10.594.812l.656-.5 1.687 1.032-1.718 1.063-.657-.469a.5.5 0 10-.593.782l.343.25-.687.406a.512.512 0 10.531.875l.625-.375.031.375a.501.501 0 101-.063l-.062-.906 1.656-1.031v1.812l-.719.344a.50316.50316 0 10.438.906l.281-.125v.688a.5.5 0 101 0v-.688l.281.125a.50338.50338 0 10.439-.906l-.72-.344v-1.812l1.656 1-.062.937a.50024.50024 0 101 .031l.031-.375.594.375a.5.5 0 10.531-.843l-.688-.407.344-.25a.50304.50304 0 10-.594-.812l-.656.5-1.687-1.031 1.687-1.031.688.468a.5.5 0 10.562-.812l-.312-.219.687-.438a.512.512 0 10-.531-.874l-.625.374-.031-.374a.501.501 0 10-1 .062l.062.906-1.656 1.031v-1.812l.719-.344a.50338.50338 0 10-.439-.906l-.28.125v-.656a.5.5 0 00-.563-.532z" overflow="visible"/>
</svg>
