<svg version="1.1" xmlns="http://www.w3.org/2000/svg" width="16" height="16" viewBox="0 0 45.118 45.118" xml:space="preserve">
	<path d="M42.701,29.043c3.148-3.149,3.148-8.257-0.001-11.407c-0.589-0.589-1.261-1.031-1.961-1.4
		c0.022-2.094-0.757-4.194-2.354-5.792C37.722,9.78,36.96,9.29,36.159,8.904c-0.386-0.801-0.876-1.562-1.539-2.225
		c-1.599-1.6-3.699-2.379-5.793-2.355c-0.369-0.701-0.812-1.374-1.399-1.962c-3.149-3.149-8.259-3.15-11.408,0
		c-0.081,0.081-0.135,0.174-0.209,0.257C12.707,0.744,8.626,1.123,5.95,3.801c-3.15,3.149-3.15,8.258,0,11.408
		c1.167,1.166,2.623,1.912,4.126,2.207c-0.212,1.796-1.955,14.77-9.515,24.042c-0.75,0.919-0.655,2.265,0.218,3.067
		c0.821,0.756,2.068,0.792,2.934,0.088c9.403-7.646,22.237-9.376,23.985-9.583c0.293,1.504,1,2.926,2.168,4.094
		c3.148,3.15,8.252,3.146,11.401-0.005c2.678-2.678,3.052-6.764,1.177-9.867C42.527,29.179,42.62,29.124,42.701,29.043z
		 M12.611,25.399c0.388,0.941,0.876,1.83,1.514,2.692l-3.534,3.534C11.416,29.394,12.1,27.292,12.611,25.399z M13.546,34.581
		l3.564-3.564c0.884,0.619,1.84,1.125,2.827,1.497C18.004,33.031,15.777,33.663,13.546,34.581z"/>
</svg>
