<svg width="192" height="192" version="1.1" viewBox="0 0 100 100" xmlns="http://www.w3.org/2000/svg">
	<rect width="100" height="100" rx="10" ry="10" fill="#661e2a"/>
	<path d="m47.284 41.114a3.6553 3.6553 0 01-1.0865-2.7163c0-1.0865.3492-2.0178 1.0865-2.7163.73729-.69847 1.6298-1.0865 2.7163-1.0865s2.0178.3492 2.7163 1.0865c.69847.73729 1.0865 1.6298 1.0865 2.7163 0 1.0865-.3492 2.0178-1.0865 2.7163a3.8804 3.8804 0 01-2.7163 1.1641c-1.0865 0-2.0178-.42683-2.7163-1.1641zm6.5967 8.9249c-.07763-.9701-.42683-1.8626-1.2029-2.6775-.77608-.73729-1.6298-1.1641-2.6775-1.2029h-3.8804c-1.0477.07763-1.8626.50446-2.6775 1.2029-.77608.77608-1.1641 1.7074-1.2029 2.6775h3.8804v11.641c.07763 1.0477.42683 1.9402 1.2029 2.6775.77608.77608 1.6298 1.2029 2.6775 1.2029h3.8804c1.0477 0 1.8626-.42683 2.6775-1.2029.77608-.73729 1.1641-1.6298 1.2029-2.6775h-3.8804v-11.68zm-3.8804-22.079c-12.184 0-22.118 9.8562-22.118 22.041s9.9338 22.118 22.118 22.118c12.184 0 22.118-9.895 22.118-22.118s-9.9338-22.079-22.118-22.079zm0-5.1221c14.978 0 27.163 12.184 27.163 27.163s-12.184 27.163-27.163 27.163c-14.978 0-27.163-12.107-27.163-27.163s12.184-27.163 27.163-27.163z" fill="#f9f9f9" fill-rule="evenodd" stroke-width=".52083"/>
</svg>
