<svg width="192" height="192" version="1.1" viewBox="0 0 100 100" xmlns="http://www.w3.org/2000/svg">
	<rect width="100" height="100" rx="10" ry="10" fill="#661e2a"/>
	<path d="m26.439 36.537v26.927c0 1.8512 1.5146 3.3659 3.3659 3.3659h40.39c1.8512 0 3.3659-1.5146 3.3659-3.3659v-26.927c0-1.8512-1.5146-3.3659-3.3659-3.3659h-40.39c-1.8512 0-3.3659 1.5146-3.3659 3.3659zm43.756 0-20.195 16.829-20.195-16.829zm-40.39 5.0488 13.463 10.098-13.463 10.098zm3.3659 21.878 11.781-10.098 5.0488 5.0488 5.0488-5.0488 11.781 10.098zm37.025-1.6829-13.463-10.098 13.463-10.098z" fill="#f9f9f9" fill-rule="evenodd" stroke-width=".52083"/>
</svg>
