<svg version="1.1" viewBox="0 0 100 100" xmlns="http://www.w3.org/2000/svg">
	<g transform="matrix(-.94522 0 0 1 85.472 4.6078)">
		<path d="m37.456 24.604c-4.484 3.122-12.526 8.677-17.863 12.38s-10.057 7.009-10.492 7.336c-1.724 1.398-1.706 2.305 0.091 5.41 1.089 1.906 1.362 2.232 2.07 2.595 1.397 0.727 1.616 0.618 7.46-3.412l5.23-3.63h3.467c4.266 0 4.7 0.145 4.7 1.652 0 0.327-0.18 0.707-0.453 0.98l-0.436 0.455h-11.454v4.719h14.54l0.436 0.454c0.454 0.436 0.581 1.18 0.345 1.815-0.308 0.763-0.78 0.817-8.242 0.817h-7.08v4.518l5.7 0.055 5.7 0.054 0.473 0.436c0.617 0.581 0.653 1.597 0.055 2.16-0.4 0.381-0.563 0.4-6.118 0.435l-5.718 0.054-0.054 3.85-0.036 3.866h52.643l-0.036-3.866-0.055-3.849-7.243-0.054c-7.152-0.036-7.261-0.054-7.679-0.435-0.6-0.562-0.562-1.579 0.054-2.16l0.473-0.436 7.243-0.054 7.243-0.055v-4.52h-5.537c-6.608 0-6.808-0.054-6.808-1.652 0-0.326 0.181-0.708 0.454-0.98l0.436-0.455h11.435l0.055-1.833 0.054-1.816 2.832 2.07c1.56 1.162 3.032 2.196 3.249 2.305 0.254 0.128 0.817 0.182 1.398 0.146 1.216-0.11 1.543-0.4 2.832-2.578 1.398-2.342 1.579-2.741 1.579-3.413 0-1.106-0.526-1.724-3.177-3.666l-2.542-1.87-0.054-7.098-0.036-7.116h-12.325l-0.055 2.524-0.055 2.523-9.784-7.152c-7.225-5.282-9.912-7.152-10.275-7.152-0.344-2e-3 -2.812 1.614-8.64 5.644zm2.051 13.488c0.363 0.435 0.435 0.653 0.345 1.18-0.2 1.234-0.363 1.288-4.974 1.288h-4.103l1.362-0.943a64.832 64.832 0 0 0 2.16-1.543l0.817-0.6 1.96 0.036c1.925 0.055 1.98 0.073 2.433 0.582zm18.716 0.871 2.051 1.507-5.845 0.054c-5.809 0.036-5.863 0.036-6.281-0.363a1.317 1.317 0 0 1-0.417-0.98c0-1.544 0.417-1.689 4.901-1.707h3.54zm10.747 7.86 2.07 1.544h-16.247l-0.436-0.455c-0.308-0.29-0.454-0.635-0.454-1.088s0.145-0.799 0.454-1.09l0.436-0.453h6.045l6.045 0.018zm-15.067 12.436v9.259h-15.61v-18.518h15.61z"/>
		<path d="m41.995 59.695c-1.053 0.89-0.364 2.65 1.034 2.65 1.307 0 1.979-1.906 0.962-2.705-0.635-0.509-1.38-0.49-1.996 0.055zm30.896-40.283-0.472 0.435v2.905c0 2.796 0.018 2.923 0.435 3.394 0.327 0.382 0.58 0.509 1.108 0.509 0.526 0 0.78-0.127 1.107-0.509 0.417-0.472 0.435-0.599 0.435-3.304v-2.83l-0.526-0.527c-0.671-0.672-1.415-0.69-2.087-0.073zm-4.429 1.308c-0.435 0.163-0.763 1.125-0.763 2.232 0 0.999 0.055 1.18 0.527 1.652 0.69 0.672 1.488 0.708 2.105 0.073 0.4-0.38 0.455-0.6 0.455-1.869 0-1.253-0.054-1.47-0.418-1.815-0.4-0.382-1.326-0.51-1.906-0.273z"/>
	</g>
	<g transform="matrix(.1368 0 0 .1368 51.807 18.052)">
		<path d="m252.88 0c-37.781 0-68.686 29.953-70.245 67.358h-6.917v8.954c-26.109 2.163-45.463 10.011-45.463 19.366h9.993c-1.65 5.146-2.507 10.54-2.507 16.017 0 28.956 23.558 52.514 52.514 52.514s52.514-23.558 52.514-52.514c0-5.478-0.856-10.872-2.506-16.017h9.992c0-9.354-19.352-17.204-45.463-19.366v-8.954h-6.149c1.544-28.579 25.279-51.358 54.237-51.358 29.952 0 54.32 24.368 54.32 54.32 0 28.774-11.078 37.009-25.105 47.437-17.444 12.968-37.216 27.667-37.216 78.884v113.91h-0.797c-5.068 0-9.174 4.108-9.174 9.177 0 2.844 1.293 5.383 3.321 7.066-3.432 27.933-26.851 95.744-8.226 115.46v11.202h45.75v-11.202c18.625-19.715-4.794-87.527-8.227-115.46 2.029-1.683 3.322-4.223 3.322-7.066 0-5.068-4.107-9.177-9.176-9.177h-0.795v-113.91c0-43.174 14.942-54.283 30.762-66.043 14.793-10.997 31.559-23.461 31.559-60.277 2e-3 -38.776-31.544-70.321-70.318-70.321zm-20.112 111.69c0 23.442-19.071 42.514-42.514 42.514-23.442 0-42.514-19.072-42.514-42.514 0-5.531 1.078-10.957 3.141-16.017h78.747c2.063 5.059 3.14 10.485 3.14 16.017z"/>
	</g>
</svg>
