<?xml version="1.0" encoding="utf-8"?>
<svg xmlns="http://www.w3.org/2000/svg">
<symbol id="restaurant" viewBox="0 0 48 48"><path d="M22 18h-4V4h-4v14h-4V4H6v14c0 4.25 3.32 7.69 7.5 7.95V44h5V25.95c4.18-.26 7.5-3.7 7.5-7.95V4h-4v14zm10-6v16h5v16h5V4c-5.52 0-10 4.48-10 8z"/>
</symbol>
<symbol id="hotel" viewBox="0 0 48 48"><path d="M14 26c3.31 0 6-2.69 6-6s-2.69-6-6-6-6 2.69-6 6 2.69 6 6 6zm24-12H22v14H6V10H2v30h4v-6h36v6h4V22c0-4.42-3.58-8-8-8z"/>
</symbol>
<symbol id="home" viewBox="0 0 16.013 16">
    <g transform="translate(-562.994 -175)">
        <path d="M565.781 180a1 1 0 0 0-.781 1v7a1 1 0 0 0 1 1h10a1 1 0 0 0 1-1v-7a1 1 0 1 0-2 0v6h-8v-6a1 1 0 0 0-1.219-1z" overflow="visible"/>
        <path d="M570.906 176a1 1 0 0 0-.5.188l-7 5a1.006 1.006 0 1 0 1.188 1.625L571 178.25l6.406 4.563a1.006 1.006 0 1 0 1.188-1.625l-7-5a1 1 0 0 0-.688-.188z" overflow="visible"/>
        <path d="M569 183h3v6h-3z" overflow="visible"/>
        <rect width="1" height="1" x="-579" y="182" rx="0" ry="1" transform="scale(-1 1)"/>
        <rect width="1" height="1" x="-564" y="182" rx="0" ry="1" transform="scale(-1 1)"/>
    </g>

</symbol>
<symbol id="public-share" viewBox="0 0 16 16">
    <path d="M5.969 7.969a2.969 2.969 0 1 1-5.938 0 2.969 2.969 0 1 1 5.938 0zm9.969 5a2.969 2.969 0 1 1-5.938 0 2.969 2.969 0 1 1 5.938 0zm0-10a2.969 2.969 0 1 1-5.938 0 2.969 2.969 0 1 1 5.938 0z" overflow="visible"/>
    <path d="M12.625 2.156L2.562 7.031.75 7.938l1.812.906 10.032 5.062.906-1.812-8.22-4.156 8.219-4-.875-1.782z" overflow="visible"/>

</symbol>
<symbol id="web-browser" viewBox="0 0 16 16.004">
    <path d="M8 4.846v10.38l-2.344-2.288-1.34 2.734c-.327.74-2.033.145-1.548-.844l1.326-2.839H1.136L8 4.846z" display="block" overflow="visible"/>
    <path d="M7.156 1.063C3.33 1.522.578 5.02 1.063 8.843c.131 1.035.293 1.383.293 1.383l1.675-1.632A4.992 4.992 0 0 1 7.406 3.03a4.992 4.992 0 0 1 5.563 4.375c.314 2.608-1.391 5.025-3.969 5.532l.031 2s.521-.106.624-.131c3.416-.834 5.706-4.128 5.283-7.65-.46-3.827-3.955-6.555-7.782-6.095z" overflow="visible"/>
    <path d="M4.113 7.815v-.206l-.198.019.05-.393h-.117l-.115.15-.116.056-.165-.093-.017-.206.033-.225.248-.186h.199l.033-.113.247.056.182.225.033-.374.314-.262.116-.28.231-.094.133-.187.297-.056.149-.225h-.446l.28-.13h.199l.28-.094.034-.112-.1-.094-.115-.037.033-.112-.083-.169-.198.075.033-.15-.231-.13-.182.317.017.113-.182.075-.116.243-.05-.225-.313-.13-.05-.169.413-.243.182-.168.017-.206-.1-.056L4.84 4l-.082.206s-.139.027-.174.036C4.13 4.66 3.214 5.562 3 7.266c.008.04.155.268.155.268l.347.206.347.093m3.966-4.3l-.43-.168-.496.056-.611.168-.116.112.38.262v.15l-.149.15.199.392.132-.075.165-.262a5.51 5.51 0 0 0 .727-.28l.199-.505m2.529.342l-.375.094-.219.156v.125l-.375.25.094.344.219-.157.125.157.156.093.094-.28L10 4.5l.063-.094.218-.187h.094l-.094.218v.188c.09-.024.16-.051.25-.063l-.25.188v.125l-.312.219-.281-.063v-.156l-.125.062.062.157h-.219l-.125.218-.156.157-.094.03v.188l.032.157H9.03v.53l.063-.03.094-.219L9.375 6l.031-.094.282-.062.156.187.187.094-.093.187.156-.03.062-.22-.187-.218h.062l.22.156.03.219.157.219.062-.313.094-.031c.096.1.169.231.25.344h.281l.188.125-.094.093-.156.157h-.25l-.344-.094h-.188l-.125.156-.343-.375-.25-.062-.375.062-.157.094V9l.032.031.25-.156.093.094h.281l.125.156-.093.312.187.188V10l.125.25-.093.25c-.01.161 0 .307 0 .469.08.219.143.435.218.656l.063.344v.187h.125l.219-.125h.25l.375-.437-.032-.157.25-.218-.187-.188.219-.187.218-.125.094-.125-.062-.25V9.75l.187-.375.188-.25.25-.563v-.156c-.117.015-.23.023-.344.031-.072.005-.145 0-.219 0a7.442 7.442 0 0 1-.312-.78l-.157-.188-.093-.313.062-.062.219.25.25.562.156.156-.062.22.156.155.25-.25.312-.218.157-.188v-.219c-.04-.073-.055-.145-.094-.218l-.156.187-.125-.156-.188-.125v-.281l.219.218.219-.03c.101.091.192.207.28.312L13 7.28c0-.174-.2-1.02-.625-1.75S11.22 4.125 11.22 4.125l-.063.094-.218.218-.25-.25h.25l.125-.125-.47-.093-.25-.094z" opacity=".3" overflow="visible"/>

</symbol>
<symbol id="contact-new" viewBox="0 0 16 16">
    <g transform="translate(-261 -727)">
        <path d="M269.55 735.09c-.705.624-1.54.906-2.555.906s-1.853-.29-2.558-.914c-1.11.363-2.436 1.288-2.438 2.902l-.004 3.012c0 .554.446 1 1 1h8c.554 0 1-.446 1-1v-3c0-1.387-1.102-2.556-2.445-2.906z"/>
        <circle cx="49.5" cy="342.5" r="2.5" transform="matrix(1.2 0 0 1.2 207.6 321)"/>
        <path d="M273 728v1.997h-2v1.996h2v1.997h2v-1.997h2v-1.996h-2V728z"/>
    </g>

</symbol>
<symbol id="info" viewBox="0 0 14 16"><path fill-rule="evenodd" d="M6.3 5.69a.942.942 0 0 1-.28-.7c0-.28.09-.52.28-.7.19-.18.42-.28.7-.28.28 0 .52.09.7.28.18.19.28.42.28.7 0 .28-.09.52-.28.7a1 1 0 0 1-.7.3c-.28 0-.52-.11-.7-.3zM8 7.99c-.02-.25-.11-.48-.31-.69-.2-.19-.42-.3-.69-.31H6c-.27.02-.48.13-.69.31-.2.2-.3.44-.31.69h1v3c.02.27.11.5.31.69.2.2.42.31.69.31h1c.27 0 .48-.11.69-.31.2-.19.3-.42.31-.69H8V7.98v.01zM7 2.3c-3.14 0-5.7 2.54-5.7 5.68 0 3.14 2.56 5.7 5.7 5.7s5.7-2.55 5.7-5.7c0-3.15-2.56-5.69-5.7-5.69v.01zM7 .98c3.86 0 7 3.14 7 7s-3.14 7-7 7-7-3.12-7-7 3.14-7 7-7z"/>
</symbol>
<symbol id="facebook" viewBox="0 0 266.893 266.895">
	<path d="m18.811 4.5918c-7.857 0-14.225 6.3672-14.225 14.224l-.0001 229.27c0 7.85 6.3671 14.22 14.225 14.22h163.6l-.02-.01h-40.15v-99.8h-33.58v-38.9h33.58v-28.682c0-33.287 20.34-51.412 50.03-51.412 14.22 0 26.45 1.057 30.01 1.531v34.787l-20.59.010c-16.15 0-19.28 7.674-19.28 18.936v24.84h38.52l-5.02 38.9h-33.5v99.8h65.67c7.85 0 14.22-6.37 14.22-14.22v-229.28c0-7.853-6.36-14.218-14.22-14.218l-229.27-.0002z"/>

</symbol>
<symbol id="twitter" viewBox="0 0 341.7375 277.725">
	<path d="m107.48 277.72c-39.6 0-76.45-11.61-107.48-31.5 5.485.65 11.066.98 16.725.98 32.847 0 63.08-11.21 87.074-30.013-30.68-.566-56.574-20.836-65.495-48.69a70.083 70.083 0 0 0 13.19 1.256c6.395 0 12.59-.856 18.473-2.458-32.074-6.44-56.242-34.778-56.242-68.748 0-.296 0-.588.006-.88a69.83 69.83 0 0 0 31.756 8.768c-18.812-12.573-31.19-34.033-31.19-58.356 0-12.85 3.457-24.894 9.492-35.25 34.58 42.42 86.24 70.33 144.51 73.255a70.387 70.387 0 0 1 -1.816 -15.978c0-38.718 31.393-70.11 70.114-70.11 20.165 0 38.386 8.515 51.176 22.142a140.38 140.38 0 0 0 44.52 -17.016c-5.233 16.372-16.35 30.112-30.826 38.79 14.182-1.695 27.695-5.464 40.27-11.04-9.4 14.06-21.29 26.408-34.986 36.293.135 3.007.202 6.03.202 9.07 0 92.65-70.52 199.49-199.48 199.49"/>

</symbol>
<symbol id="linkedin" viewBox="0 0 64 64">
	<path d="m16.961 12.801c-2.624 0-4.354 1.792-4.354 4.16 0 2.304 1.665 4.158 4.225 4.158 2.752 0 4.48-1.854 4.416-4.158 0-2.368-1.663-4.16-4.287-4.16zm24.574 11.008c-4.416 0-7.103 2.559-8.191 4.351h-.127l-.385-3.775h-7.103c.064 2.432.191 5.248.191 8.576v18.238h8.191v-15.424c0-.768.064-1.535.256-2.111.640-1.536 1.985-3.137 4.225-3.137 3.008 0 4.16 2.369 4.16 5.825v14.847h8.256v-15.806c0-7.936-4.097-11.584-9.473-11.584zm-28.734.576v26.814h8.191v-26.814h-8.191z"/>

</symbol>
<symbol id="mark-github" viewBox="0 0 16 16"><path fill-rule="evenodd" d="M8 0C3.58 0 0 3.58 0 8c0 3.54 2.29 6.53 5.47 7.59.4.07.55-.17.55-.38 0-.19-.01-.82-.01-1.49-2.01.37-2.53-.49-2.69-.94-.09-.23-.48-.94-.82-1.13-.28-.15-.68-.52-.01-.53.63-.01 1.08.58 1.23.82.72 1.21 1.87.87 2.33.66.07-.52.28-.87.51-1.07-1.78-.2-3.64-.89-3.64-3.95 0-.87.31-1.59.82-2.15-.08-.2-.36-1.02.08-2.12 0 0 .67-.21 2.2.82.64-.18 1.32-.27 2-.27.68 0 1.36.09 2 .27 1.53-1.04 2.2-.82 2.2-.82.44 1.1.16 1.92.08 2.12.51.56.82 1.27.82 2.15 0 3.07-1.87 3.75-3.65 3.95.29.25.54.73.54 1.48 0 1.07-.01 1.93-.01 2.2 0 .21.15.46.55.38A8.013 8.013 0 0 0 16 8c0-4.42-3.58-8-8-8z"/>
</symbol>
<symbol id="repo" viewBox="0 0 12 16"><path fill-rule="evenodd" d="M4 9H3V8h1v1zm0-3H3v1h1V6zm0-2H3v1h1V4zm0-2H3v1h1V2zm8-1v12c0 .55-.45 1-1 1H6v2l-1.5-1.5L3 16v-2H1c-.55 0-1-.45-1-1V1c0-.55.45-1 1-1h10c.55 0 1 .45 1 1zm-1 10H1v2h2v-1h3v1h5v-2zm0-10H2v9h9V1z"/>
</symbol>
<symbol id="issue-opened" viewBox="0 0 14 16"><path fill-rule="evenodd" d="M7 2.3c3.14 0 5.7 2.56 5.7 5.7s-2.56 5.7-5.7 5.7A5.71 5.71 0 0 1 1.3 8c0-3.14 2.56-5.7 5.7-5.7zM7 1C3.14 1 0 4.14 0 8s3.14 7 7 7 7-3.14 7-7-3.14-7-7-7zm1 3H6v5h2V4zm0 6H6v2h2v-2z"/>
</symbol>
<symbol id="link" viewBox="0 0 16 16"><path fill-rule="evenodd" d="M4 9h1v1H4c-1.5 0-3-1.69-3-3.5S2.55 3 4 3h4c1.45 0 3 1.69 3 3.5 0 1.41-.91 2.72-2 3.25V8.59c.58-.45 1-1.27 1-2.09C10 5.22 8.98 4 8 4H4c-.98 0-2 1.22-2 2.5S3 9 4 9zm9-3h-1v1h1c1 0 2 1.22 2 2.5S13.98 12 13 12H9c-.98 0-2-1.22-2-2.5 0-.83.42-1.64 1-2.09V6.25c-1.09.53-2 1.84-2 3.25C6 11.31 7.55 13 9 13h4c1.45 0 3-1.69 3-3.5S14.5 6 13 6z"/>
</symbol>
<symbol id="link-external" viewBox="0 0 12 16"><path fill-rule="evenodd" d="M11 10h1v3c0 .55-.45 1-1 1H1c-.55 0-1-.45-1-1V3c0-.55.45-1 1-1h3v1H1v10h10v-3zM6 2l2.25 2.25L5 7.5 6.5 9l3.25-3.25L12 8V2H6z"/>
</symbol>
<symbol id="camera-video" viewBox="0 0 16 16">
    <path d="M11.502 1a3.5 3.5 0 0 1 3.5 3.5c0 1.12-.526 2.11-1.344 2.75.21.183.344.448.344.75-.002 2 0 3.052 0 6 0 .554-.446 1-1 1h-9c-.554 0-1-.446-1-1v-2.156L.439 13.75a.27.27 0 0 1-.062.031.295.295 0 0 1-.094 0 .326.326 0 0 1-.063 0 .287.287 0 0 1-.062-.031.283.283 0 0 1-.063-.031.317.317 0 0 1-.03-.031.317.317 0 0 1-.032-.032.267.267 0 0 1-.031-.062.326.326 0 0 1 0-.063V7.47a.326.326 0 0 1 0-.063.283.283 0 0 1 .031-.062.317.317 0 0 1 .031-.031.317.317 0 0 1 .031-.032.317.317 0 0 1 .032-.03.317.317 0 0 1 .03-.032.27.27 0 0 1 .063-.031.295.295 0 0 1 .094 0h.031c.011.01.022.02.031.031a.283.283 0 0 1 .063.031L3 9.157V8a.99.99 0 0 1 .344-.75A3.481 3.481 0 0 1 2.001 4.5a3.5 3.5 0 0 1 3.5-3.5c1.284 0 2.391.689 3 1.719a3.471 3.471 0 0 1 3-1.719zm0 2a1.5 1.5 0 1 0 0 3 1.5 1.5 0 0 0 0-3zm-6 0a1.5 1.5 0 1 0 0 3 1.5 1.5 0 0 0 0-3zm3 3.281A3.42 3.42 0 0 1 7.939 7h1.125a3.42 3.42 0 0 1-.562-.719z" overflow="visible"/>

</symbol></svg>