<?xml version="1.0" standalone="no"?>
<!DOCTYPE svg PUBLIC "-//W3C//DTD SVG 20010904//EN"
 "http://www.w3.org/TR/2001/REC-SVG-20010904/DTD/svg10.dtd">
<svg version="1.0" xmlns="http://www.w3.org/2000/svg"
 width="700.000000pt" height="700.000000pt" viewBox="0 0 700.000000 700.000000"
 preserveAspectRatio="xMidYMid meet">
<metadata>
Created by potrace 1.11, written by Peter Selinger 2001-2013
</metadata>
<g transform="translate(0.000000,700.000000) scale(0.100000,-0.100000)"
fill="#000000" stroke="none">
<path d="M5977 5734 c-1 -1 -20 -4 -42 -8 -272 -40 -524 -299 -552 -566 -6
-65 -9 -70 -42 -70 -28 0 -30 -3 -33 -42 -2 -32 -7 -42 -23 -44 -11 -2 -40 -6
-65 -9 -177 -24 -319 -89 -343 -157 -6 -16 0 -18 42 -18 l49 0 -10 -42 c-16
-73 -11 -187 11 -259 56 -179 205 -310 391 -346 248 -47 502 113 572 362 17
61 19 213 3 263 -7 21 -4 22 39 22 58 0 61 19 11 65 -57 55 -258 117 -382 118
-9 0 -13 16 -13 44 0 41 -1 43 -30 43 -36 0 -38 13 -15 99 85 329 437 486 745
333 120 -59 231 -206 265 -348 18 -76 13 -232 -10 -299 -38 -111 -75 -156
-226 -273 -219 -168 -299 -298 -334 -541 -12 -84 -14 -190 -15 -743 0 -540 -1
-558 -19 -558 -28 0 -60 -31 -70 -66 -7 -25 -5 -39 9 -61 21 -34 17 -59 -43
-328 -20 -88 -38 -173 -41 -190 -8 -43 -15 -82 -27 -150 -6 -33 -12 -114 -14
-180 -3 -130 11 -210 45 -257 14 -19 20 -43 20 -80 l0 -53 208 1 c114 1 212 2
219 2 7 1 11 20 11 47 0 28 10 65 26 98 27 55 39 115 40 202 0 57 -12 214 -18
224 -2 3 -7 29 -10 56 -8 59 -10 70 -30 155 -8 36 -17 76 -20 90 -2 14 -16 78
-30 143 -38 169 -39 180 -21 213 8 16 15 41 15 55 0 31 -42 76 -73 81 l-22 3
1 585 c0 527 5 717 19 739 2 4 7 23 10 42 3 19 23 70 44 114 45 91 104 154
247 263 50 39 110 92 134 118 86 98 140 260 140 424 0 88 -22 212 -45 257 -8
15 -15 33 -15 39 0 5 -21 41 -46 80 -124 188 -325 302 -544 308 -50 1 -91 2
-93 0z m-137 -964 c16 -66 18 -105 9 -159 -14 -80 -18 -92 -45 -139 -109 -186
-335 -262 -523 -175 -114 53 -203 161 -229 279 -12 55 -9 160 7 207 l13 37
378 0 378 0 12 -50z"/>
<path d="M1049 5335 c-53 -29 -61 -54 -61 -209 0 -260 -2 -244 35 -281 29 -29
40 -33 72 -30 24 2 47 13 64 29 l26 26 3 210 c3 197 2 210 -17 229 -43 43 -78
50 -122 26z"/>
<path d="M2872 5315 c-91 -60 -1130 -853 -1239 -946 -13 -10 -23 -18 -24 -16
0 1 -3 78 -5 172 -3 93 -7 171 -9 174 -3 3 -711 5 -791 2 -21 -1 -21 -2 -24
-443 -1 -244 -3 -467 -4 -497 l-1 -55 -95 -74 c-330 -256 -333 -265 -190 -527
58 -107 96 -162 126 -181 13 -9 52 -18 87 -21 60 -5 64 -3 120 36 32 22 63 46
70 51 44 38 283 220 290 220 4 0 6 -12 6 -27 -1 -16 -1 -71 0 -124 l1 -96 382
-1 c359 0 383 -1 396 -19 47 -61 51 -140 9 -167 -37 -24 -109 -29 -447 -31
-179 -2 -328 -3 -332 -4 -5 0 -8 -71 -8 -156 l0 -155 73 0 c621 -4 891 -11
904 -21 42 -36 56 -120 26 -158 -10 -12 -34 -26 -54 -30 -20 -5 -171 -9 -335
-11 -558 -4 -592 -5 -600 -12 -9 -10 -16 -528 -7 -529 5 -1 788 -2 1741 -3
1725 -1 1732 -1 1733 19 1 21 1 163 0 391 l-1 130 -327 3 c-444 3 -453 4 -473
57 -18 47 -12 89 19 122 l28 32 339 5 c186 2 357 4 379 5 l41 0 -1 157 -1 157
-434 2 c-443 2 -494 4 -543 23 -59 23 -58 121 1 174 19 17 50 19 496 19 262 0
477 3 477 6 5 32 3 315 -3 318 -4 3 -175 5 -380 5 l-373 0 -27 36 c-31 40 -38
106 -15 137 23 31 98 42 314 44 l208 3 260 -190 c143 -105 285 -209 315 -230
92 -67 174 -104 212 -97 78 14 116 58 210 236 94 178 94 254 3 332 -21 18
-283 214 -405 303 -77 56 -696 511 -925 680 -82 60 -160 117 -172 125 -11 8
-135 99 -275 201 -462 340 -661 479 -682 479 -7 0 -35 -16 -64 -35z m-153
-1269 c55 -7 91 -26 96 -50 12 -55 12 -75 -2 -103 -8 -17 -25 -35 -39 -42 -18
-8 -136 -11 -401 -9 l-375 2 28 24 c16 13 45 35 64 50 19 15 64 50 100 78 36
29 74 54 85 56 28 5 399 1 444 -6z m1081 -99 c79 -59 137 -107 129 -107 -81
-3 -463 1 -493 5 -67 9 -83 25 -91 93 -3 25 35 100 53 103 10 2 235 14 248 14
6 -1 75 -49 154 -108z m-1422 -460 c47 -50 49 -108 6 -164 l-24 -32 -535 0
c-294 -1 -535 1 -535 3 0 3 60 51 134 109 l134 104 400 1 399 1 21 -22z m1072
-957 l0 -648 -515 0 c-469 0 -515 2 -516 17 -1 9 -2 300 -3 647 l-1 631 518 1
517 0 0 -648z"/>
<path d="M3085 2511 c-69 -43 -47 -179 31 -194 114 -21 168 144 65 197 -34 18
-62 17 -96 -3z"/>
<path d="M1375 5231 c-60 -18 -75 -48 -75 -151 0 -85 9 -112 44 -142 39 -32
106 -15 140 37 34 52 18 223 -23 244 -25 14 -62 19 -86 12z"/>
</g>
</svg>
